<svg xmlns:inkscape="http://www.inkscape.org/namespaces/inkscape" xmlns:sodipodi="http://sodipodi.sourceforge.net/DTD/sodipodi-0.dtd" xmlns="http://www.w3.org/2000/svg" xmlns:svg="http://www.w3.org/2000/svg" width="828" height="222" viewBox="0 0 828 222" id="svg4408" sodipodi:docname="hope channel.svg" inkscape:version="1.2 (dc2aedaf03, 2022-05-15)"><defs id="defs4412"></defs><path fill="#1d4a8b" d="m 157.66992,105.70018 c -21.34926,-0.0483 -38.59973,-17.606204 -38.55998,-39.213694 0.0399,-21.623565 17.37841,-39.125586 38.71159,-39.085847 21.3416,0.0483 38.60815,17.606199 38.56001,39.23742 -0.0483,21.61591 -17.37002,39.101851 -38.71162,39.062121 z" id="path4372"></path><path fill="#1d4a8b" d="M 268.57092,5.2098934 C 264.79218,2.2060038 259.83044,0 253.39779,0 L 15.735085,0.00973482 c 0,0 -19.5912125,-1.08626892 -15.05290575,19.69063418 L 41.047612,204.52915 c 0,0 4.538306,20.79298 23.778062,16.56732 l 44.360856,-13.10106 0.19143,-2.2843 C 112.09466,170.73156 109.051,160.94596 105.27151,143.6912 98.072389,110.77242 54.606636,62.093183 50.707689,58.594769 46.912112,55.183624 45.537679,47.147224 59.480319,54.144818 116.98443,83.021659 156.3353,135.72752 160.03517,135.61576 165.7159,135.43969 236.04396,38.895714 264.09693,9.3475141 c 1.56586,-1.6611724 3.06816,-3.0276207 4.47399,-4.1376207 z M 315.235,126.51299 279.20803,21.350059 c 0,0 -0.96632,-3.52291 -3.4357,-7.692683 C 240.58456,83.872914 219.2353,130.28316 215.52012,176.59083 l 86.69108,-25.58665 c 0,0 19.2321,-4.23331 13.0238,-24.49119" id="path4374"></path><path fill="#ffd400" d="m 157.66992,105.70018 c 21.3416,0.0397 38.66328,-17.446211 38.71162,-39.062121 0.0481,-21.631221 -17.21841,-39.189124 -38.56001,-39.23742 -21.33318,-0.03974 -38.6717,17.462282 -38.71159,39.085847 -0.0397,21.60749 17.21072,39.165394 38.55998,39.213694 z" id="path4376"></path><path fill="#ffd400" d="M 264.09693,9.3475141 C 236.04396,38.895714 165.7159,135.43969 160.03517,135.61576 156.3353,135.72752 116.98443,83.021659 59.480319,54.144818 c -13.94264,-6.997594 -12.568207,1.038806 -8.77263,4.449951 3.898947,3.498414 47.3647,52.177651 54.563821,85.096431 3.77949,17.25476 6.82315,27.04036 4.10645,62.01991 l -0.19143,2.2843 106.33359,-31.40458 c 3.71518,-46.30767 25.06444,-92.717916 60.25221,-162.933454 -2.2994,-4.5686067 -7.20141,-8.4474826 -7.20141,-8.4474826 -1.40583,1.11 -2.90813,2.4764483 -4.47399,4.1376207 z" id="path4378"></path><g fill="#1d4a8b" transform="translate(353.776,66.344)" id="g4404"><polygon points="12.936,38.72 32.736,38.72 32.736,62.656 45.76,62.656 45.76,5.28 32.736,5.28 32.736,27.368 12.936,27.368 12.936,5.28 0,5.28 0,62.656 12.936,62.656 " id="polygon4400"></polygon><path d="m 74.276211,63.712 c 11,0 21.208,-8.36 21.208,-22.88 0,-14.52 -10.208,-22.88 -21.208,-22.88 -11.088,0 -21.296,8.36 -21.296,22.88 0,14.52 10.208,22.88 21.296,22.88 z m 0,-10.472 c -5.368,0 -8.008,-4.84 -8.008,-12.408 0,-7.568 2.64,-12.408 8.008,-12.408 5.28,0 8.008,4.84 8.008,12.408 0,7.568 -2.728,12.408 -8.008,12.408 z m 27.372209,25.608 h 12.936 v -12.76 l -0.44,-6.952 c 3.08,2.904 6.6,4.576 10.384,4.576 9.416,0 18.392,-8.624 18.392,-23.584 0,-13.464 -6.512,-22.176 -17.072,-22.176 -4.576,0 -8.976,2.288 -12.408,5.368 h -0.352 l -0.88,-4.312 h -10.56 z m 19.888,-25.696 c -2.2,0 -4.664,-0.704 -6.952,-2.816 V 32.472 c 2.552,-2.728 4.84,-3.96 7.48,-3.96 5.192,0 7.568,3.96 7.568,11.792 0,8.976 -3.608,12.848 -8.096,12.848 z m 47.34821,10.56 c 5.192,0 11,-1.848 15.488,-4.928 l -4.312,-7.832 c -3.168,1.936 -6.16,2.904 -9.416,2.904 -5.808,0 -10.208,-2.904 -11.352,-9.24 h 26.136 c 0.264,-1.056 0.528,-3.432 0.528,-5.72 0,-11.88 -6.16,-20.944 -18.568,-20.944 -10.472,0 -20.592,8.712 -20.592,22.88 0,14.432 9.592,22.88 22.088,22.88 z m -9.68,-27.632 c 0.88,-5.544 4.4,-8.272 8.448,-8.272 5.192,0 7.304,3.432 7.304,8.272 z m 57.02821,27.632 c 7.48,0 13.112,-3.08 17.688,-8.36 l -4.048,-4.576 c -3.696,4.048 -7.832,6.512 -13.376,6.512 -10.912,0 -17.864,-9.152 -17.864,-23.672 0,-14.344 7.216,-23.32 18.128,-23.32 4.928,0 8.712,2.2 11.792,5.456 l 3.96,-4.752 c -3.344,-3.784 -8.8,-7.128 -15.84,-7.128 -14.696,0 -25.608,11.352 -25.608,29.92 0,18.832 10.736,29.92 25.168,29.92 z m 24.99621,-1.056 h 7.216 V 31.68 c 4.312,-4.312 7.304,-6.6 11.704,-6.6 5.632,0 8.096,3.432 8.096,11.44 v 26.136 h 7.216 V 35.552 c 0,-10.912 -4.048,-16.72 -13.024,-16.72 -5.896,0 -10.208,3.168 -14.256,7.04 l 0.264,-8.8 V 0 h -7.216 z m 55.00422,1.056 c 5.368,0 10.12,-2.816 14.168,-6.16 h 0.264 l 0.616,5.104 h 5.984 V 36.432 c 0,-10.648 -4.4,-17.6 -14.872,-17.6 -6.864,0 -12.848,2.992 -16.808,5.544 l 2.816,5.016 c 3.344,-2.288 7.832,-4.576 12.76,-4.576 7.04,0 8.8,5.28 8.8,10.736 -18.216,2.024 -26.224,6.688 -26.224,16.016 0,7.656 5.368,12.144 12.496,12.144 z m 2.112,-5.808 c -4.224,0 -7.568,-2.024 -7.568,-6.864 0,-5.456 4.928,-8.976 19.184,-10.736 v 11.88 c -4.136,3.696 -7.48,5.72 -11.616,5.72 z m 29.66021,4.752 h 7.216 V 31.68 c 4.312,-4.312 7.304,-6.6 11.704,-6.6 5.632,0 8.096,3.432 8.096,11.44 v 26.136 h 7.216 V 35.552 c 0,-10.912 -4.048,-16.72 -13.024,-16.72 -5.896,0 -10.296,3.168 -14.344,7.216 h -0.264 l -0.616,-6.16 h -5.984 z m 45.41221,0 h 7.216 V 31.68 c 4.312,-4.312 7.304,-6.6 11.704,-6.6 5.632,0 8.096,3.432 8.096,11.44 v 26.136 h 7.216 V 35.552 c 0,-10.912 -4.048,-16.72 -13.024,-16.72 -5.896,0 -10.296,3.168 -14.344,7.216 h -0.264 l -0.616,-6.16 h -5.984 z m 62.74821,1.056 c 5.808,0 10.384,-2.024 14.08,-4.4 l -2.552,-4.752 c -3.168,2.024 -6.6,3.344 -10.648,3.344 -8.184,0 -13.728,-5.808 -14.256,-14.872 h 28.864 c 0.176,-1.056 0.264,-2.64 0.264,-4.136 0,-12.232 -6.16,-20.064 -17.072,-20.064 -9.768,0 -19.184,8.536 -19.184,22.528 0,13.992 9.064,22.352 20.504,22.352 z M 422.7019,37.84 c 0.88,-8.448 6.336,-13.288 12.32,-13.288 6.688,0 10.56,4.664 10.56,13.288 z m 44.70821,25.872 c 1.936,0 3.168,-0.264 4.136,-0.704 l -0.968,-5.456 c -0.792,0.176 -1.144,0.176 -1.584,0.176 -1.056,0 -2.024,-0.88 -2.024,-3.168 V 0 h -7.216 v 54.032 c 0,6.248 2.2,9.68 7.656,9.68 z" id="path4402"></path></g></svg>